<?xml version="1.0" encoding="utf-8"?>
<svg viewBox="0 0 24 24" width="24px" height="24px" fill="none" xmlns="http://www.w3.org/2000/svg">
  <ellipse style="fill-rule: nonzero; stroke-miterlimit: 2; stroke-width: 0px; fill: rgb(0, 0, 0);" cx="12" cy="12" rx="10" ry="10"/>
  <path fill-rule="evenodd" clip-rule="evenodd" d="M 5.902 14.418 L 9.275 16.364 C 9.933 16.743 10.773 16.518 11.152 15.862 C 11.531 15.206 11.305 14.367 10.649 13.988 L 8.467 12.729 L 6.493 14.111 C 6.305 14.242 6.106 14.344 5.902 14.418 Z" style="fill: rgb(255, 255, 255);"/>
  <path fill-rule="evenodd" clip-rule="evenodd" d="M 4.585 10.848 L 9.085 7.7 C 9.707 7.266 10.565 7.417 10.999 8.037 C 11.107 8.193 11.18 8.363 11.217 8.537 C 11.279 8.826 11.245 9.128 11.124 9.394 C 11.025 9.61 10.87 9.803 10.662 9.948 L 6.162 13.096 C 5.54 13.531 4.684 13.38 4.248 12.759 C 4.081 12.52 4 12.245 4 11.973 C 4 11.541 4.205 11.115 4.585 10.848 Z" style="fill: rgb(255, 255, 255);"/>
  <path fill-rule="evenodd" clip-rule="evenodd" d="M 18.098 9.582 L 14.725 7.636 C 14.067 7.258 13.227 7.483 12.848 8.138 C 12.469 8.795 12.694 9.633 13.351 10.013 L 15.533 11.271 L 17.507 9.889 C 17.695 9.758 17.894 9.656 18.098 9.582 Z" style="fill: rgb(255, 255, 255);"/>
  <path fill-rule="evenodd" clip-rule="evenodd" d="M 19.415 13.152 L 14.915 16.3 C 14.293 16.734 13.435 16.583 13.001 15.963 C 12.892 15.808 12.82 15.638 12.783 15.463 C 12.721 15.174 12.755 14.873 12.876 14.606 C 12.975 14.39 13.13 14.198 13.338 14.052 L 17.838 10.903 C 18.46 10.469 19.315 10.62 19.752 11.241 C 19.919 11.48 20 11.755 20 12.027 C 20 12.459 19.795 12.885 19.415 13.152 Z" style="fill: rgb(255, 255, 255);"/>
</svg>